<?xml version="1.0" encoding="iso-8859-1"?>
<!-- Uploaded to: SVG Repo, www.svgrepo.com, Generator: SVG Repo Mixer Tools -->
<!DOCTYPE svg PUBLIC "-//W3C//DTD SVG 1.1//EN" "http://www.w3.org/Graphics/SVG/1.1/DTD/svg11.dtd">
<svg fill="#000000" height="800px" width="800px" version="1.1" id="Capa_1" xmlns="http://www.w3.org/2000/svg" xmlns:xlink="http://www.w3.org/1999/xlink" 
	 viewBox="0 0 207.139 207.139" xml:space="preserve">
<path d="M202.139,78.988h-23.315c-1.26-3.857-2.82-7.619-4.664-11.245l16.491-16.491c1.953-1.953,1.953-5.119,0-7.071
	l-27.693-27.693c-1.953-1.952-5.118-1.952-7.071,0l-16.491,16.491c-3.626-1.844-7.387-3.404-11.245-4.664V5c0-2.761-2.239-5-5-5
	H83.988c-2.761,0-5,2.239-5,5v23.315c-3.857,1.26-7.619,2.82-11.245,4.665L51.252,16.488c-0.938-0.938-2.209-1.464-3.536-1.464
	c-1.326,0-2.598,0.527-3.536,1.464L16.488,44.181c-1.953,1.953-1.953,5.119,0,7.071l16.491,16.491
	c-1.844,3.626-3.404,7.387-4.664,11.245H5c-2.761,0-5,2.239-5,5v39.163c0,2.761,2.239,5,5,5h23.315
	c1.26,3.857,2.82,7.619,4.664,11.245l-16.491,16.491c-1.953,1.953-1.953,5.119,0,7.071l27.692,27.693
	c1.953,1.952,5.118,1.953,7.071,0l16.491-16.491c3.626,1.844,7.387,3.404,11.245,4.664v23.315c0,2.761,2.239,5,5,5h39.163
	c2.761,0,5-2.239,5-5v-23.315c3.857-1.26,7.619-2.82,11.245-4.664l16.491,16.491c1.953,1.952,5.118,1.952,7.071,0l27.693-27.693
	c1.953-1.953,1.953-5.119,0-7.071l-16.491-16.491c1.844-3.626,3.404-7.387,4.664-11.245h23.315c2.761,0,5-2.239,5-5V83.988
	C207.139,81.227,204.9,78.988,202.139,78.988z M139.531,103.569c0,19.83-16.132,35.962-35.962,35.962s-35.962-16.132-35.962-35.962
	s16.132-35.962,35.962-35.962S139.531,83.74,139.531,103.569z"/>
</svg>